<svg xmlns="http://www.w3.org/2000/svg" viewBox="0 0 50.58 38.56"><defs><style>.cls-1{fill:#c0c6c8;}</style></defs><g id="Layer_2" data-name="Layer 2"><g id="Layer_1-2" data-name="Layer 1"><g id="discord"><path class="cls-1" d="M0,29.65V25.7s.09-.05.09-.08a8.92,8.92,0,0,1,.1-1.79c.07-.27,0-.56.09-.85s0-.56.1-.85,0-.46.1-.7a3.57,3.57,0,0,0,.09-.74,7.91,7.91,0,0,0,.22-1.35c.19-.14,0-.39.14-.53s0-.4.14-.59.06-.37.12-.54c.11-.34.16-.69.28-1s.21-.7.3-1.06a20.4,20.4,0,0,1,.66-2c.2-.52.42-1,.62-1.57.34-.91.76-1.79,1.16-2.68a20.17,20.17,0,0,1,1.1-2.11C5.55,6.8,5.7,6.36,6,6c.57-.85,1-1.76,1.66-2.58,0-.22.2-.24.32-.29.63-.24,1.22-.54,1.85-.77s1-.39,1.5-.55,1.05-.43,1.6-.56A12.45,12.45,0,0,1,14.58.8c.27-.18.62-.15.92-.28a6.33,6.33,0,0,1,1-.21c.13,0,.26-.07.4-.09a2.66,2.66,0,0,0,.46-.09A4,4,0,0,1,18.14,0a21.68,21.68,0,0,1,1.35,2.68,2.89,2.89,0,0,0,.77-.09c.24-.1.52,0,.8-.1s.7,0,1-.11c.64,0,1.29-.1,1.93-.09a18.85,18.85,0,0,1,3.36.09c.69-.07,1.36.11,2,.1.05,0,.11,0,.14,0,.24.19.53,0,.75.11a2.38,2.38,0,0,0,.74.09A20.26,20.26,0,0,1,32.46,0a42.06,42.06,0,0,1,10.4,3.22.19.19,0,0,0,0,.12c.45.64.88,1.3,1.3,2s.91,1.56,1.35,2.35c.22.4.42.81.63,1.22s.42.85.6,1.28c.25.59.53,1.16.76,1.76.15.42.34.81.48,1.24s.39,1.05.56,1.59S49,16,49.1,16.61c.1.42.2.84.32,1.25a15.35,15.35,0,0,1,.37,1.63c0,.1.08.2.09.3s0,.28,0,.4c.18.45.14.94.28,1.41.07.25,0,.53.09.8a3.06,3.06,0,0,1,.1.79,19.77,19.77,0,0,1,.12,2,1.7,1.7,0,0,0,0,.39s.06.05.1.08v3.75s-.1.06-.1.08c.06.85-.11,1.68-.11,2.58l-1,.7c-.57.4-1.16.77-1.74,1.15-.8.52-1.63,1-2.47,1.45-.49.27-1,.49-1.51.76s-1.29.61-2,.89c-.46.2-.91.42-1.39.58s-1.25.48-1.9.66c-.3.09-.59.29-.9.24a29.89,29.89,0,0,1-2.64-4.39A6.9,6.9,0,0,1,36,33.62c.47-.12.83-.48,1.31-.54a6.25,6.25,0,0,1,1.25-.67c.17-.09.39-.16.46-.43l-1-.78a9.57,9.57,0,0,1-1.75.81,12.39,12.39,0,0,1-1.37.5c-.72.21-1.44.43-2.16.62s-1.23.28-1.83.46c-.19.06-.4,0-.61.1s-.39,0-.6.09-.49,0-.75.1-.53,0-.79.1-.8.05-1.2.1a12.28,12.28,0,0,1-1.82,0A6,6,0,0,1,23.36,34a12.89,12.89,0,0,1-1.64-.1c-.3,0-.58-.17-.89-.1-.2-.22-.49,0-.73-.17s-.52-.07-.78-.14-.42,0-.6-.1-.55-.11-.8-.21-.53-.16-.78-.24l-.8-.23c-.53-.15-1.06-.32-1.57-.51-.77-.3-1.54-.61-2.31-1-.29.29-.69.45-1,.84a1.06,1.06,0,0,0,.29.22,9.42,9.42,0,0,1,.88.49c.62.31,1.24.6,1.86.88a4.36,4.36,0,0,0,.6.23,1,1,0,0,1,.56.35A27.91,27.91,0,0,1,13,38.56,42,42,0,0,1,.24,32.12,14,14,0,0,1,.1,29.73s0-.06,0-.08Zm21.44-8.4c0-.31,0-.54,0-.77a3.43,3.43,0,0,0-.11-.64,8.22,8.22,0,0,0-.33-.95,4.94,4.94,0,0,0-.35-.64,4.57,4.57,0,0,0-.38-.49,5.46,5.46,0,0,0-.39-.45,2.27,2.27,0,0,0-.48-.4,4.63,4.63,0,0,0-1.73-.71,4.16,4.16,0,0,0-1.87.08,4.43,4.43,0,0,0-.49.13,4.7,4.7,0,0,0-2,1.68,5.25,5.25,0,0,0-.6,1.18,5.81,5.81,0,0,0-.32,1.34,5.45,5.45,0,0,0,.05,1.45,9.79,9.79,0,0,0,.46,1.54,3.93,3.93,0,0,0,.83,1.23,6.68,6.68,0,0,0,.8.7,3.69,3.69,0,0,0,1.9.74,4.08,4.08,0,0,0,1.3-.05,5.09,5.09,0,0,0,1.52-.63,5,5,0,0,0,.93-.85,4.08,4.08,0,0,0,1-1.67A4.37,4.37,0,0,0,21.44,21.25Zm16.79-.06h0a3.55,3.55,0,0,0,0-1c-.11-.37-.21-.76-.35-1.13a4.91,4.91,0,0,0-1.18-1.78,4.08,4.08,0,0,0-1.52-.95,2.9,2.9,0,0,0-.84-.22,5.41,5.41,0,0,0-1.5.08,4.19,4.19,0,0,0-1.91,1,5.14,5.14,0,0,0-1.34,1.91,6.35,6.35,0,0,0-.41,1.8,2.58,2.58,0,0,0,.08,1.1,6.83,6.83,0,0,1,.11.79,8.09,8.09,0,0,0,1.25,2.15,5.35,5.35,0,0,0,1.75,1.14,1.9,1.9,0,0,0,.8.21,2.89,2.89,0,0,0,1.34-.09,3.07,3.07,0,0,0,1.79-.78,4.93,4.93,0,0,0,1.62-2.19c.08-.23.17-.45.23-.69a2.84,2.84,0,0,0,.1-.65C38.24,21.65,38.23,21.42,38.23,21.19Z"/></g></g></g></svg>