<svg xmlns="http://www.w3.org/2000/svg" viewBox="0 0 44 44"><defs><style>.cls-1{fill:#c0c6c8;}</style></defs><g id="Layer_2" data-name="Layer 2"><g id="Layer_1-2" data-name="Layer 1"><g id="instagram"><path class="cls-1" d="M22,10.74A11.31,11.31,0,1,0,33.35,22,11.3,11.3,0,0,0,22,10.74Zm0,18.64A7.34,7.34,0,1,1,29.38,22,7.34,7.34,0,0,1,22,29.38Z"/><path class="cls-1" d="M42.84,7.59a11.15,11.15,0,0,0-6.43-6.43,16.06,16.06,0,0,0-5.34-1C28.72,0,28,0,22,0s-6.72,0-9.07.13a16.06,16.06,0,0,0-5.34,1,10.81,10.81,0,0,0-3.9,2.53,11,11,0,0,0-2.54,3.9,16.35,16.35,0,0,0-1,5.34C0,15.28,0,16,0,22s0,6.72.13,9.07a16.35,16.35,0,0,0,1,5.34,11.26,11.26,0,0,0,6.44,6.44,16.35,16.35,0,0,0,5.34,1C15.28,44,16,44,22,44s6.72,0,9.07-.13a16.35,16.35,0,0,0,5.34-1,11,11,0,0,0,3.9-2.54,10.81,10.81,0,0,0,2.53-3.9,16.06,16.06,0,0,0,1-5.34C44,28.72,44,28,44,22s0-6.72-.13-9.07A16.06,16.06,0,0,0,42.84,7.59Zm-2.93,23.3A12.34,12.34,0,0,1,39.15,35,7.35,7.35,0,0,1,35,39.15a12.2,12.2,0,0,1-4.08.76c-2.32.1-3,.13-8.89.13s-6.57,0-8.89-.13A12.34,12.34,0,0,1,9,39.15,6.86,6.86,0,0,1,6.5,37.5,6.86,6.86,0,0,1,4.85,35a12.34,12.34,0,0,1-.76-4.09C4,28.57,4,27.87,4,22s0-6.57.13-8.89A12.2,12.2,0,0,1,4.85,9,6.81,6.81,0,0,1,6.5,6.5,6.86,6.86,0,0,1,9,4.85a12.34,12.34,0,0,1,4.09-.76C15.43,4,16.13,4,22,4s6.57,0,8.89.13A12.2,12.2,0,0,1,35,4.85,6.81,6.81,0,0,1,37.5,6.5,6.81,6.81,0,0,1,39.15,9a12.2,12.2,0,0,1,.76,4.08c.1,2.32.13,3,.13,8.89S40,28.57,39.91,30.89Z"/><path class="cls-1" d="M33.7,7.6a2.62,2.62,0,1,0,2.62,2.61A2.61,2.61,0,0,0,33.7,7.6Z"/></g></g></g></svg>