<svg xmlns="http://www.w3.org/2000/svg" viewBox="0 0 44 44"><defs><style>.cls-1{fill:#c0c6c8;}</style></defs><g id="Layer_2" data-name="Layer 2"><g id="Layer_1-2" data-name="Layer 1"><g id="plat2"><path class="cls-1" d="M19.92,0h4.16c0,.17.13.13.22.12.52-.08,1,.17,1.53.12.26.22.6.11.88.24a3.72,3.72,0,0,0,.94.25A13.42,13.42,0,0,1,31,1.86a25.07,25.07,0,0,1,2.59,1.41A18,18,0,0,1,36.5,5.43a21.9,21.9,0,0,1,3.31,3.62,28.47,28.47,0,0,1,1.68,2.67,20.3,20.3,0,0,1,1.26,2.77,8.09,8.09,0,0,1,.64,2.42c.25.15,0,.49.24.64a1.89,1.89,0,0,0,.12.74c.07.22,0,.45.08.7a2.42,2.42,0,0,1,.05.77c0,.06.08.11.12.16v4.16c-.17,0-.13.13-.12.22.08.52-.17,1-.12,1.53-.22.26-.11.6-.24.88a3.72,3.72,0,0,0-.25.94A13.42,13.42,0,0,1,42.14,31a25.07,25.07,0,0,1-1.41,2.59,18,18,0,0,1-2.16,2.94A21.9,21.9,0,0,1,35,39.81a28.47,28.47,0,0,1-2.67,1.68,20.3,20.3,0,0,1-2.77,1.26,8.09,8.09,0,0,1-2.42.64c-.15.25-.49,0-.64.24a1.89,1.89,0,0,0-.74.12c-.22.07-.45,0-.7.08a2.42,2.42,0,0,1-.77.05c-.06,0-.11.08-.16.12H19.92c0-.17-.13-.13-.22-.12-.52.08-1-.17-1.53-.12-.26-.22-.6-.11-.88-.24a3.72,3.72,0,0,0-.94-.25A13.42,13.42,0,0,1,13,42.14a25.07,25.07,0,0,1-2.59-1.41A18,18,0,0,1,7.5,38.57,21.9,21.9,0,0,1,4.19,35a28.47,28.47,0,0,1-1.68-2.67,20.3,20.3,0,0,1-1.26-2.77,8.09,8.09,0,0,1-.64-2.42c-.25-.15,0-.49-.24-.64a1.89,1.89,0,0,0-.12-.74c-.07-.22,0-.45-.08-.7a2.42,2.42,0,0,1-.05-.77c0-.06-.08-.11-.12-.16V19.92c.17,0,.13-.13.12-.22-.08-.52.17-1,.12-1.53.22-.26.11-.6.24-.88a3.72,3.72,0,0,0,.25-.94A13.42,13.42,0,0,1,1.86,13a25.07,25.07,0,0,1,1.41-2.59A18,18,0,0,1,5.43,7.5,21.9,21.9,0,0,1,9.05,4.19a28.47,28.47,0,0,1,2.67-1.68,20.3,20.3,0,0,1,2.77-1.26A8.09,8.09,0,0,1,16.91.61c.15-.25.49,0,.64-.24a1.89,1.89,0,0,0,.74-.12c.22-.07.45,0,.7-.08a2.42,2.42,0,0,1,.77-.05C19.82.11,19.87,0,19.92,0Zm3.91,12c0-.73,0-1.42,0-2.11a1.34,1.34,0,0,0-.07-.4c-.11-.38-.45-.48-.75-.65s-.44,0-.66,0c-.66.21-.84.44-.84,1.13v.73c0,.24,0,.48,0,.76l-3.42-.92c0,.12,0,.18.05.23a26.54,26.54,0,0,1,1.73,3.8c.21.61.4,1.22.57,1.85a11.45,11.45,0,0,1,.33,1.93,5.52,5.52,0,0,1-.09,2.14,6.9,6.9,0,0,1-.39,1.24c-.24.44-.43.89-.66,1.32a24.64,24.64,0,0,1-1.31,2.15,1.53,1.53,0,0,0-.11.39h3.19c.25.4.1.83.13,1.24s0,.88,0,1.32H18.28a2.13,2.13,0,0,1-.75-.11,2.27,2.27,0,0,1-1.52-2v-.53H9.29a4.5,4.5,0,0,0,0,1.22,10.32,10.32,0,0,0,.57,1.9,8.3,8.3,0,0,0,1.36,2.18,7.57,7.57,0,0,0,2.37,1.66,5.77,5.77,0,0,0,2.37.6h12.4a2.45,2.45,0,0,0,1.22-.33,5.81,5.81,0,0,0,1.76-1.63c.66-.85,1.19-1.79,1.77-2.69A5.07,5.07,0,0,1,34,27.37a6.91,6.91,0,0,1,1.88-1.22,3.45,3.45,0,0,0,.44-.25V24.18a2.87,2.87,0,0,1-1,.27,23.26,23.26,0,0,1-2.33.72,16.34,16.34,0,0,1-1.69.49c-.48.12-.94.31-1.43.39a1.17,1.17,0,0,0-.7.38c-.39.44-.83.84-1.25,1.26a2,2,0,0,1-1.18.54H24l-.2-.17V25.85l.18-.18h2c.31-.36.71-.63,1-1s.67-.73,1-1.12a7,7,0,0,0,1.3-2.27c.11-.37.21-.73.29-1.1a2.51,2.51,0,0,0-.15-1.28,7.58,7.58,0,0,0-1.1-2.36,13.75,13.75,0,0,0-1.64-2A15.51,15.51,0,0,0,25,13c-.3-.2-.51-.54-.9-.64C24,12.28,23.94,12.14,23.83,12ZM16.9,13.49a1.64,1.64,0,0,0-.41.48,5.58,5.58,0,0,1-.49.77c-.49.74-1,1.45-1.44,2.21s-.8,1.26-1.2,1.89c-.24.39-.56.74-.76,1.15s-.57.86-.82,1.31-.55.87-.83,1.3a1,1,0,0,0-.07.36h6.2c.06-.14.07-.29.16-.38a5.42,5.42,0,0,0,.7-1.24,4.21,4.21,0,0,0,.5-1.43,6.57,6.57,0,0,0-.14-2.38A10.32,10.32,0,0,0,18,16.32c-.15-.38-.23-.8-.38-1.18C17.39,14.6,17.15,14.08,16.9,13.49Z"/></g></g></g></svg>