<svg xmlns="http://www.w3.org/2000/svg" viewBox="0 0 44 44"><defs><style>.cls-1{fill:#9d9fa0;}.cls-2{fill:#c0c6c8;}</style></defs><g id="Layer_2" data-name="Layer 2"><g id="Layer_1-2" data-name="Layer 1"><g id="plat1"><path class="cls-1" d="M44,22A22,22,0,0,1,9.13,39.84C20.8,38,28.89,34.11,34.33,30.23h.24v-.17a33.41,33.41,0,0,0,9.36-9.78C44,20.85,44,21.42,44,22Z"/><path class="cls-2" d="M34.57,30.06v.17h-.24Z"/><path class="cls-2" d="M42.85,16.69A29,29,0,0,1,34.57,25V11.54a1.81,1.81,0,0,0-1.81-1.81h-3A1.81,1.81,0,0,0,28,11.54V27.05a2.46,2.46,0,0,1-1.5,2.27c-.39.17-.79.33-1.2.49V16.33a1.81,1.81,0,0,0-1.81-1.81h-3a1.81,1.81,0,0,0-1.81,1.81V30.06a2.47,2.47,0,0,1-1.89,2.4l-1,.23V20.82A1.81,1.81,0,0,0,14.05,19h-3a1.81,1.81,0,0,0-1.81,1.81v11.5A1.81,1.81,0,0,1,7.7,34.11c-1.14.14-2.32.27-3.53.37a.45.45,0,0,1-.42-.2h0A22,22,0,1,1,43,15.45h0A1.5,1.5,0,0,1,42.85,16.69Z"/></g></g></g></svg>