<svg xmlns="http://www.w3.org/2000/svg" viewBox="0 0 404.5 63.27"><defs><style>.cls-1{fill:#f81;}</style></defs><g id="Layer_2" data-name="Layer 2"><g id="Layer_1-2" data-name="Layer 1"><path class="cls-1" d="M.05,54.91,6.34,41.23A.54.54,0,0,1,7.11,41a42.49,42.49,0,0,0,9.3,4.36,32.25,32.25,0,0,0,9.9,1.71c3,0,4.5-1,4.5-3.06q0-2.7-5.67-4.32l-6.93-2C8.4,34.92,2.91,28.08,2.91,18.63A17.18,17.18,0,0,1,8.76,5.13C12.72,1.71,17.94,0,24.33,0A41.12,41.12,0,0,1,35.49,1.71,51.6,51.6,0,0,1,46.29,6a.54.54,0,0,1,.22.71l-6.1,12.72a.55.55,0,0,1-.74.24,30,30,0,0,0-13.81-3.79c-3.69,0-5.49,1-5.49,3.06,0,1.71,1.62,3,4.77,3.87l6.93,2c10.71,3,16.65,9.72,16.65,18.63,0,12.87-8,19.89-22.5,19.89a49,49,0,0,1-26-7.67A.54.54,0,0,1,.05,54.91Z"/><path class="cls-1" d="M52.37,7.83C52.37,3.15,55.88,0,61.19,0c5,0,8.46,3.15,8.46,7.83,0,4.41-3.42,7.47-8.46,7.47C55.88,15.3,52.37,12.24,52.37,7.83Zm.81,53.37V20a.54.54,0,0,1,.54-.54H68.39a.54.54,0,0,1,.54.54V61.2a.54.54,0,0,1-.54.54H53.72A.54.54,0,0,1,53.18,61.2Z"/><path class="cls-1" d="M104.19,3.46l14.67-1.68a.54.54,0,0,1,.61.54V61.2a.54.54,0,0,1-.54.54h-13a.55.55,0,0,1-.51-.35l-.77-2.08a.53.53,0,0,0-.85-.22,18.09,18.09,0,0,1-12,4.18,16.24,16.24,0,0,1-13.23-6c-3.33-4.05-5-9.36-5-15.93,0-7,2.07-12.69,6.12-16.92s9.45-6.48,16.2-6.48A24.68,24.68,0,0,1,103,19a.54.54,0,0,0,.7-.51V4A.53.53,0,0,1,104.19,3.46Zm-.47,39.74V32.88a.57.57,0,0,0-.39-.52,17.82,17.82,0,0,0-5.19-.95c-5,0-8.37,3.69-8.37,9.36,0,5.49,2.7,9.09,6.66,9.09C100.84,49.86,103.72,47.16,103.72,43.2Z"/><path class="cls-1" d="M163.2,25.74q5.56,7.54,4.11,19.76a.55.55,0,0,1-.54.49H139.9a.54.54,0,0,0-.46.83c1.88,3.14,5.07,4.75,9.63,4.75A23.79,23.79,0,0,0,161,48.08a.55.55,0,0,1,.76.23L166,57.24a.55.55,0,0,1-.22.7,35.88,35.88,0,0,1-18.38,5.33,24.13,24.13,0,0,1-16.74-6.12c-4.41-4-6.66-9.63-6.66-16.65,0-6.75,2.07-12.24,6.12-16.38s9.45-6.21,16.11-6.21Q157.67,17.91,163.2,25.74ZM152.37,36.08a.52.52,0,0,0,.54-.56c-.31-2.92-3-4.83-7-4.83a7.19,7.19,0,0,0-7,4.53.54.54,0,0,0,.48.78Z"/><path class="cls-1" d="M205.47,61.47,194.33,42.19a.54.54,0,0,0-.9-.06l-3.35,4.34a.52.52,0,0,0-.12.33V61.2a.54.54,0,0,1-.54.54h-16a.54.54,0,0,1-.54-.54V2.25a.54.54,0,0,1,.54-.54h16a.54.54,0,0,1,.54.54V20.46a.54.54,0,0,0,1,.32L204.47,1.94a.53.53,0,0,1,.44-.23h18.43a.54.54,0,0,1,.43.87L205.12,26.89a.54.54,0,0,0,0,.6l19.76,33.43a.55.55,0,0,1-.47.82H205.93A.54.54,0,0,1,205.47,61.47Z"/><path class="cls-1" d="M227.63,7.83c0-4.68,3.51-7.83,8.82-7.83,5,0,8.46,3.15,8.46,7.83,0,4.41-3.42,7.47-8.46,7.47C231.14,15.3,227.63,12.24,227.63,7.83Zm.81,53.37V20a.54.54,0,0,1,.54-.54h14.67a.54.54,0,0,1,.54.54V61.2a.54.54,0,0,1-.54.54H229A.54.54,0,0,1,228.44,61.2Z"/><path class="cls-1" d="M254.76,57.06c-4-4.14-6.12-9.63-6.12-16.47s2.07-12.33,6.12-16.47,9.45-6.21,16.2-6.21a31.89,31.89,0,0,1,16.4,4.42.55.55,0,0,1,.22.71l-5.13,11a.54.54,0,0,1-.74.25A18.84,18.84,0,0,0,273.3,32c-5.31,0-8.91,3.42-8.91,8.55s3.6,8.55,8.91,8.55a18.84,18.84,0,0,0,8.41-2.26.54.54,0,0,1,.74.24l5.13,11a.54.54,0,0,1-.22.7A31.81,31.81,0,0,1,271,63.27Q260.83,63.27,254.76,57.06Z"/><path class="cls-1" d="M318.9,61.48l-7.83-12.79a.54.54,0,0,0-.87-.07L307.31,52a.49.49,0,0,0-.13.35V61.2a.54.54,0,0,1-.54.54H292a.54.54,0,0,1-.54-.54V4a.53.53,0,0,1,.47-.53l14.67-1.68a.54.54,0,0,1,.61.54V29.8a.53.53,0,0,0,.94.35l9.24-10.53a.58.58,0,0,1,.41-.18h16.92a.54.54,0,0,1,.41.9l-13.89,15.8a.54.54,0,0,0,0,.65l15.28,24.12a.54.54,0,0,1-.46.83H319.36A.53.53,0,0,1,318.9,61.48Z"/><path class="cls-1" d="M356.48,46.44l-3.6-1a28,28,0,0,1-8.82-3.87c-2.88-2.07-4.5-5.22-4.5-9.45,0-8.55,6.84-14.22,17.19-14.22a34.8,34.8,0,0,1,17.47,4.34.55.55,0,0,1,.23.71l-4.59,9.74a.54.54,0,0,1-.74.23,23.13,23.13,0,0,0-10.75-3.14c-1.89,0-2.88.54-2.88,1.71,0,1,1,1.8,2.88,2.25l3.69,1a26.56,26.56,0,0,1,7.29,2.79c4,2,6.12,5.22,6.39,11.61a12.46,12.46,0,0,1-5,10.26c-3.33,2.61-7.65,3.87-13.14,3.87A43.23,43.23,0,0,1,338,58.2a.55.55,0,0,1-.25-.72l5-10.67a.55.55,0,0,1,.69-.28c6.85,2.67,11.55,4,14.1,4,1.71,0,2.52-.54,2.52-1.62S358.82,47.07,356.48,46.44Z"/><path class="cls-1" d="M385.84,9.46h2.53a.19.19,0,0,1,.19.19v9.83a.2.2,0,0,1-.19.19h-2.61a.18.18,0,0,1-.16-.1l-2.23-4.09a.19.19,0,0,0-.35.09v3.91a.2.2,0,0,1-.19.19H380.3a.19.19,0,0,1-.19-.19V9.65a.18.18,0,0,1,.19-.19h2.6a.18.18,0,0,1,.17.1l2.22,4.09a.19.19,0,0,0,.36-.09V9.65A.18.18,0,0,1,385.84,9.46Z"/><path class="cls-1" d="M395.89,12a.19.19,0,0,1-.19.19h-3.35v1.41h2.9a.19.19,0,0,1,.19.21l-.19,2.22a.19.19,0,0,1-.19.17h-2.52a.2.2,0,0,0-.19.19v3.07a.19.19,0,0,1-.19.19h-2.53a.2.2,0,0,1-.19-.19V9.65a.19.19,0,0,1,.19-.19h6.07a.19.19,0,0,1,.19.19Z"/><path class="cls-1" d="M404.5,9.67,404.23,12a.19.19,0,0,1-.19.17h-1.83a.2.2,0,0,0-.19.19v7.08a.19.19,0,0,1-.19.19h-2.52a.19.19,0,0,1-.19-.19V12.4a.2.2,0,0,0-.19-.19h-2.12a.19.19,0,0,1-.19-.19V9.65a.19.19,0,0,1,.19-.19h7.5A.19.19,0,0,1,404.5,9.67Z"/></g></g></svg>