<svg xmlns="http://www.w3.org/2000/svg" viewBox="0 0 42 36"><defs><style>.cls-1{fill:#c0c6c8;}</style></defs><g id="Layer_2" data-name="Layer 2"><g id="Layer_1-2" data-name="Layer 1"><path id="Twitter" class="cls-1" d="M40.84.67a16.86,16.86,0,0,1-5.47,2.2A8.39,8.39,0,0,0,29.08,0a8.86,8.86,0,0,0-8.62,9.09,10.1,10.1,0,0,0,.22,2.07A24.09,24.09,0,0,1,2.92,1.66,9.48,9.48,0,0,0,1.76,6.23,9.24,9.24,0,0,0,5.59,13.8a8.28,8.28,0,0,1-3.9-1.14v.11A9,9,0,0,0,8.6,21.68,7.74,7.74,0,0,1,6.33,22a7.81,7.81,0,0,1-1.62-.16,8.69,8.69,0,0,0,8.05,6.31A16.73,16.73,0,0,1,2.06,32,17.41,17.41,0,0,1,0,31.92,23.53,23.53,0,0,0,13.21,36c15.85,0,24.51-13.85,24.51-25.86,0-.39,0-.79,0-1.17A18.09,18.09,0,0,0,42,4.26a16.7,16.7,0,0,1-5,1.43A9,9,0,0,0,40.84.67Z"/></g></g></svg>